<?xml version="1.0" encoding="UTF-8" standalone="no"?>
<svg
   xmlns:osb="http://www.openswatchbook.org/uri/2009/osb"
   xmlns:dc="http://purl.org/dc/elements/1.1/"
   xmlns:cc="http://creativecommons.org/ns#"
   xmlns:rdf="http://www.w3.org/1999/02/22-rdf-syntax-ns#"
   xmlns:svg="http://www.w3.org/2000/svg"
   xmlns="http://www.w3.org/2000/svg"
   xmlns:sodipodi="http://sodipodi.sourceforge.net/DTD/sodipodi-0.dtd"
   xmlns:inkscape="http://www.inkscape.org/namespaces/inkscape"
   width="512"
   height="512"
   viewBox="0 0 122.88 122.88"
   version="1.1"
   id="svg8"
   inkscape:version="1.0 (4035a4fb49, 2020-05-01)"
   sodipodi:docname="Ultra Spectra.svg">
  <defs
     id="defs2">
    <linearGradient
       id="linearGradient3099"
       osb:paint="solid">
      <stop
         style="stop-color:#6fc3df;stop-opacity:1;"
         offset="0"
         id="stop3097" />
    </linearGradient>
    <inkscape:path-effect
       effect="skeletal"
       id="path-effect147"
       is_visible="true"
       lpeversion="1"
       pattern="M 0,5 C 0,2.24 2.24,0 5,0 7.76,0 10,2.24 10,5 10,7.76 7.76,10 5,10 2.24,10 0,7.76 0,5 Z"
       copytype="single_stretched"
       prop_scale="1"
       scale_y_rel="false"
       spacing="0"
       normal_offset="0"
       tang_offset="0"
       prop_units="false"
       vertical_pattern="false"
       hide_knot="false"
       fuse_tolerance="0" />
    <inkscape:path-effect
       effect="skeletal"
       id="path-effect143"
       is_visible="true"
       lpeversion="1"
       pattern="M 0,5 C 0,2.24 2.24,0 5,0 7.76,0 10,2.24 10,5 10,7.76 7.76,10 5,10 2.24,10 0,7.76 0,5 Z"
       copytype="single_stretched"
       prop_scale="0.93925324"
       scale_y_rel="false"
       spacing="0"
       normal_offset="0"
       tang_offset="0"
       prop_units="false"
       vertical_pattern="false"
       hide_knot="false"
       fuse_tolerance="0" />
    <inkscape:path-effect
       effect="skeletal"
       id="path-effect139"
       is_visible="true"
       lpeversion="1"
       pattern="M 0,5 C 0,2.24 2.24,0 5,0 7.76,0 10,2.24 10,5 10,7.76 7.76,10 5,10 2.24,10 0,7.76 0,5 Z"
       copytype="single_stretched"
       prop_scale="1"
       scale_y_rel="false"
       spacing="0"
       normal_offset="0"
       tang_offset="0"
       prop_units="false"
       vertical_pattern="false"
       hide_knot="false"
       fuse_tolerance="0" />
    <inkscape:path-effect
       effect="skeletal"
       id="path-effect135"
       is_visible="true"
       lpeversion="1"
       pattern="M 0,5 C 0,2.24 2.24,0 5,0 7.76,0 10,2.24 10,5 10,7.76 7.76,10 5,10 2.24,10 0,7.76 0,5 Z"
       copytype="single_stretched"
       prop_scale="1"
       scale_y_rel="false"
       spacing="0"
       normal_offset="0"
       tang_offset="0"
       prop_units="false"
       vertical_pattern="false"
       hide_knot="false"
       fuse_tolerance="0" />
    <inkscape:path-effect
       effect="skeletal"
       id="path-effect131"
       is_visible="true"
       lpeversion="1"
       pattern="M 0,5 C 0,2.24 2.24,0 5,0 7.76,0 10,2.24 10,5 10,7.76 7.76,10 5,10 2.24,10 0,7.76 0,5 Z"
       copytype="single_stretched"
       prop_scale="1"
       scale_y_rel="false"
       spacing="0"
       normal_offset="0"
       tang_offset="0"
       prop_units="false"
       vertical_pattern="false"
       hide_knot="false"
       fuse_tolerance="0" />
    <inkscape:path-effect
       effect="skeletal"
       id="path-effect125"
       is_visible="true"
       lpeversion="1"
       pattern="M 0,5 C 0,2.24 2.24,0 5,0 7.76,0 10,2.24 10,5 10,7.76 7.76,10 5,10 2.24,10 0,7.76 0,5 Z"
       copytype="single_stretched"
       prop_scale="1"
       scale_y_rel="false"
       spacing="0"
       normal_offset="0"
       tang_offset="0"
       prop_units="false"
       vertical_pattern="false"
       hide_knot="false"
       fuse_tolerance="0" />
  </defs>
  <sodipodi:namedview
     id="base"
     pagecolor="#ffffff"
     bordercolor="#666666"
     borderopacity="1.0"
     inkscape:pageopacity="0.0"
     inkscape:pageshadow="2"
     inkscape:zoom="2"
     inkscape:cx="211.67114"
     inkscape:cy="339.57017"
     inkscape:document-units="px"
     inkscape:current-layer="layer1"
     inkscape:document-rotation="0"
     showgrid="true"
     inkscape:window-width="2493"
     inkscape:window-height="2071"
     inkscape:window-x="0"
     inkscape:window-y="0"
     inkscape:window-maximized="0"
     inkscape:snap-to-guides="false"
     inkscape:snap-grids="true"
     units="px"
     scale-x="0.24">
    <inkscape:grid
       type="xygrid"
       id="grid3173" />
  </sodipodi:namedview>
  <metadata
     id="metadata5">
    <rdf:RDF>
      <cc:Work
         rdf:about="">
        <dc:format>image/svg+xml</dc:format>
        <dc:type
           rdf:resource="http://purl.org/dc/dcmitype/StillImage" />
        <dc:title />
      </cc:Work>
    </rdf:RDF>
  </metadata>
  <g
     inkscape:label="Ebene 1"
     inkscape:groupmode="layer"
     id="layer1"
     style="display:inline">
    <text
       xml:space="preserve"
       style="font-style:normal;font-variant:normal;font-weight:normal;font-stretch:normal;font-size:45.1556px;line-height:1.25;font-family:Montez;-inkscape-font-specification:'Montez, Normal';font-variant-ligatures:normal;font-variant-caps:normal;font-variant-numeric:normal;font-variant-east-asian:normal;fill:#6fc3df;fill-opacity:1;stroke:none;stroke-width:0.264583"
       x="16.909689"
       y="101.2921"
       id="text89"><tspan
         sodipodi:role="line"
         id="tspan87"
         x="16.909689"
         y="101.2921"
         style="font-style:normal;font-variant:normal;font-weight:normal;font-stretch:normal;font-size:45.1556px;font-family:Montez;-inkscape-font-specification:'Montez, Normal';font-variant-ligatures:normal;font-variant-caps:normal;font-variant-numeric:normal;font-variant-east-asian:normal;fill:#6fc3df;fill-opacity:1;stroke-width:0.264583">Ultra</tspan></text>
    <text
       xml:space="preserve"
       style="font-style:normal;font-variant:normal;font-weight:normal;font-stretch:normal;font-size:16.9333px;line-height:1.25;font-family:'Fredericka the Great';-inkscape-font-specification:'Fredericka the Great, Normal';font-variant-ligatures:normal;font-variant-caps:normal;font-variant-numeric:normal;font-variant-east-asian:normal;fill:#df740c;fill-opacity:1;stroke:none;stroke-width:0.264583"
       x="44.49147"
       y="115.66423"
       id="text93"><tspan
         sodipodi:role="line"
         id="tspan91"
         x="44.49147"
         y="115.66423"
         style="font-style:normal;font-variant:normal;font-weight:normal;font-stretch:normal;font-size:16.9333px;font-family:'Fredericka the Great';-inkscape-font-specification:'Fredericka the Great, Normal';font-variant-ligatures:normal;font-variant-caps:normal;font-variant-numeric:normal;font-variant-east-asian:normal;fill:#df740c;fill-opacity:1;stroke-width:0.264583">Spectra</tspan></text>
    <g
       id="g243"
       transform="matrix(0.26224481,0,0,0.26458333,-5.6052161,-25.248553)">
      <g
         id="g241">
        <g
           id="g239">
          <g
             id="g205">
            <path
               id="path203"
               d="m 129.433,351.189 c -0.004,0 -0.006,0 -0.01,0 -1.089,0 -2.171,-0.005 -3.248,-0.014 -0.803,-0.007 -1.571,-0.336 -2.13,-0.913 -0.559,-0.577 -0.863,-1.354 -0.844,-2.157 l 0.001,-0.179 c 0,-0.669 -0.083,-1.304 -0.246,-1.886 -0.881,-3.291 -3.835,-5.564 -7.194,-5.564 -0.646,0 -1.296,0.086 -1.93,0.256 -3.109,0.834 -5.329,3.555 -5.522,6.77 -0.048,0.803 -0.417,1.552 -1.022,2.08 -0.605,0.528 -1.397,0.793 -2.199,0.731 -46.462,-3.516 -75.234,-17.348 -81.015,-38.949 -0.709,-2.639 -1.069,-5.396 -1.069,-8.194 0,-15.748 11.438,-33.71 33.078,-51.946 1.229,-1.036 3.058,-0.919 4.145,0.267 2.231,2.434 5.735,3.469 8.953,2.612 3.921,-1.053 6.664,-4.624 6.664,-8.681 0,-0.779 -0.104,-1.56 -0.307,-2.323 -0.22,-0.821 -0.563,-1.619 -1.018,-2.372 -0.827,-1.366 -0.439,-3.139 0.881,-4.036 34.908,-23.698 83.836,-45.452 137.772,-61.255 1.589,-0.467 3.256,0.445 3.723,2.035 0.466,1.59 -0.445,3.257 -2.035,3.723 -52.256,15.311 -99.696,36.225 -133.951,59.023 0.162,0.438 0.304,0.882 0.424,1.331 0.339,1.268 0.511,2.571 0.511,3.873 0,6.766 -4.57,12.719 -11.113,14.477 -4.409,1.172 -9.158,0.233 -12.751,-2.404 -18.967,16.452 -28.975,32.211 -28.975,45.675 0,2.272 0.291,4.507 0.864,6.641 4.895,18.287 31.432,30.729 72.983,34.303 1.31,-4.424 4.829,-7.943 9.427,-9.176 1.141,-0.306 2.313,-0.461 3.483,-0.461 6.071,0 11.409,4.104 12.98,9.979 0.067,0.239 0.127,0.484 0.181,0.734 0.168,0 0.36,0.013 0.51,0 35.056,0 75.5,-5.045 116.97,-14.591 1.614,-0.368 3.225,0.637 3.596,2.251 0.372,1.614 -0.636,3.225 -2.25,3.597 -41.903,9.645 -82.817,14.743 -118.317,14.743 z m 165.912,-27.684 c -1.28,0 -2.466,-0.826 -2.864,-2.112 -0.491,-1.583 0.395,-3.264 1.977,-3.754 95.995,-29.76 168.402,-76.81 175.405,-113.361 -8.285,-0.176 -15.516,-5.83 -17.667,-13.871 -0.427,-1.585 -0.645,-3.223 -0.645,-4.861 0,-4.177 1.397,-8.191 3.917,-11.442 -16.782,-11.297 -46.917,-17.487 -85.502,-17.487 -41.923,0 -90.355,7.041 -140.062,20.36 -1.602,0.425 -3.246,-0.521 -3.674,-2.122 -0.428,-1.601 0.521,-3.245 2.122,-3.674 50.206,-13.453 99.175,-20.564 141.615,-20.564 42.674,0 74.439,7.153 91.864,20.687 0.71,0.551 1.136,1.392 1.159,2.291 0.023,0.899 -0.357,1.76 -1.037,2.348 -2.797,2.418 -4.401,5.918 -4.401,9.604 0,1.111 0.147,2.224 0.439,3.305 1.486,5.556 6.531,9.432 12.271,9.432 0.829,0 1.663,-0.083 2.479,-0.245 0.923,-0.184 1.874,0.074 2.576,0.696 0.702,0.622 1.073,1.537 1.002,2.473 -3.028,39.996 -77.082,90.231 -180.085,122.164 -0.296,0.089 -0.595,0.133 -0.889,0.133 z"
               style="fill:#0c141f;fill-opacity:1" />
          </g>
          <g
             id="g209">
            <path
               id="path207"
               d="m 165.751,321.824 c -10.391,0 -20.027,-0.628 -28.64,-1.866 -1.64,-0.236 -2.778,-1.757 -2.542,-3.396 0.235,-1.64 1.762,-2.774 3.396,-2.543 8.332,1.198 17.681,1.806 27.787,1.806 29.194,0 62.928,-4.905 97.555,-14.187 38.721,-10.374 74.391,-25.24 100.439,-41.861 24.875,-15.873 39.142,-32.401 39.142,-45.347 0,-1.508 -0.192,-2.989 -0.571,-4.404 -4.026,-15.049 -29.704,-24.032 -68.688,-24.032 -2.538,0 -5.147,0.039 -7.788,0.115 -0.895,4.99 -4.604,9.137 -9.628,10.485 -1.128,0.303 -2.287,0.456 -3.445,0.456 -5.739,0 -10.821,-3.712 -12.61,-9.116 -20.675,2.266 -42.201,6.382 -64.033,12.245 -38.719,10.369 -74.389,25.235 -100.441,41.861 -24.876,15.875 -39.143,32.407 -39.143,45.354 0,1.507 0.192,2.986 0.57,4.397 0.175,0.654 0.393,1.306 0.648,1.937 0.622,1.535 -0.119,3.285 -1.655,3.906 -1.536,0.621 -3.285,-0.119 -3.907,-1.654 -0.348,-0.859 -0.645,-1.747 -0.883,-2.638 -0.513,-1.916 -0.773,-3.918 -0.773,-5.948 0,-31.036 61.919,-71.021 144.03,-93.011 23.084,-6.199 45.849,-10.474 67.66,-12.703 0.801,-0.079 1.599,0.161 2.218,0.673 0.619,0.513 1.007,1.252 1.076,2.053 0.036,0.428 0.11,0.856 0.218,1.275 0.849,3.147 3.741,5.367 7.025,5.367 0.634,0 1.27,-0.084 1.891,-0.251 3.174,-0.852 5.391,-3.742 5.391,-7.028 0,-0.133 -0.003,-0.266 -0.011,-0.4 -0.046,-0.804 0.234,-1.592 0.775,-2.188 0.542,-0.595 1.3,-0.948 2.104,-0.979 3.633,-0.14 7.237,-0.211 10.711,-0.211 42.493,0 69.642,10.38 74.484,28.48 0.515,1.919 0.775,3.924 0.775,5.956 0,15.257 -14.886,33.158 -41.914,50.405 -26.552,16.942 -62.816,32.071 -102.114,42.599 -35.127,9.417 -69.398,14.393 -99.109,14.393 z"
               style="fill:#0c141f;fill-opacity:1" />
          </g>
          <g
             id="g213">
            <path
               id="path211"
               d="m 204.281,290.646 c -23.977,0 -38.745,-5.831 -41.583,-16.42 -0.31,-1.152 -0.467,-2.356 -0.467,-3.576 0,-6.532 4.333,-13.536 12.876,-20.816 0.673,-0.573 1.562,-0.821 2.437,-0.676 0.872,0.145 1.636,0.666 2.088,1.426 1.308,2.199 3.71,3.565 6.27,3.565 0.631,0 1.263,-0.083 1.88,-0.247 3.174,-0.852 5.396,-3.743 5.396,-7.028 0,-0.632 -0.084,-1.268 -0.249,-1.889 -0.249,-0.908 -0.673,-1.769 -1.254,-2.539 -0.523,-0.693 -0.72,-1.579 -0.541,-2.428 0.179,-0.849 0.718,-1.579 1.477,-2.001 13.624,-7.577 30.415,-14.153 48.559,-19.018 19.114,-5.122 37.775,-7.829 53.966,-7.829 23.981,0 38.753,5.831 41.594,16.419 0.31,1.16 0.467,2.365 0.467,3.583 0,3.432 -1.227,7.052 -3.647,10.759 -0.474,0.727 -1.238,1.212 -2.098,1.332 -0.858,0.122 -1.728,-0.138 -2.382,-0.707 -1.827,-1.586 -4.354,-2.185 -6.679,-1.561 -3.182,0.848 -5.398,3.73 -5.398,7.011 0,0.634 0.084,1.27 0.251,1.89 0.263,0.984 0.71,1.878 1.332,2.662 0.513,0.647 0.737,1.477 0.618,2.294 -0.118,0.817 -0.568,1.55 -1.244,2.024 -14.768,10.375 -35.964,19.584 -59.686,25.932 -19.122,5.128 -37.79,7.838 -53.983,7.838 z m -27.572,-34.194 c -5.49,5.188 -8.478,10.165 -8.478,14.197 0,0.695 0.088,1.375 0.262,2.021 1.98,7.387 15.693,11.975 35.789,11.975 15.676,0 33.806,-2.64 52.43,-7.633 21.511,-5.756 41.531,-14.241 55.483,-23.474 -0.305,-0.67 -0.554,-1.368 -0.747,-2.091 -0.302,-1.124 -0.455,-2.283 -0.455,-3.442 0,-5.996 4.049,-11.262 9.847,-12.807 3.037,-0.816 6.337,-0.497 9.147,0.846 0.805,-1.731 1.21,-3.363 1.21,-4.874 0,-0.696 -0.088,-1.38 -0.263,-2.032 -1.98,-7.383 -15.698,-11.971 -35.798,-11.971 -15.674,0 -33.798,2.636 -52.413,7.625 -16.511,4.427 -31.84,10.291 -44.548,17.028 0.214,0.519 0.396,1.052 0.546,1.598 0.305,1.146 0.457,2.3 0.457,3.453 0,5.995 -4.049,11.268 -9.847,12.824 -1.126,0.3 -2.277,0.451 -3.429,0.451 -3.452,0.002 -6.747,-1.361 -9.193,-3.694 z"
               style="fill:#0c141f;fill-opacity:1" />
          </g>
          <g
             id="g217">
            <path
               id="path215"
               d="m 66.84,260.415 c -6.772,0 -12.72,-4.574 -14.465,-11.123 -0.341,-1.265 -0.515,-2.574 -0.515,-3.882 0,-6.765 4.569,-12.709 11.11,-14.457 1.273,-0.341 2.583,-0.515 3.893,-0.515 6.754,0 12.703,4.566 14.467,11.104 0.34,1.272 0.512,2.576 0.512,3.879 0,6.767 -4.57,12.719 -11.113,14.477 -1.273,0.343 -2.582,0.517 -3.889,0.517 z m 0.023,-23.977 c -0.784,0 -1.572,0.104 -2.341,0.311 -3.924,1.048 -6.662,4.609 -6.662,8.661 0,0.781 0.104,1.565 0.31,2.329 1.048,3.934 4.612,6.675 8.669,6.675 0.782,0 1.567,-0.104 2.333,-0.311 3.927,-1.054 6.669,-4.625 6.669,-8.682 0,-0.78 -0.103,-1.562 -0.307,-2.322 -1.055,-3.919 -4.623,-6.661 -8.671,-6.661 z"
               style="fill:#ffe64d;fill-opacity:1" />
          </g>
          <g
             id="g221">
            <path
               id="path219"
               d="m 115.763,361.383 c -6.079,0 -11.425,-4.1 -13.001,-9.97 -0.306,-1.144 -0.461,-2.316 -0.461,-3.489 0,-6.077 4.104,-11.417 9.981,-12.987 1.136,-0.306 2.309,-0.461 3.481,-0.461 6.071,0 11.409,4.104 12.98,9.979 0.305,1.138 0.46,2.31 0.46,3.481 0,6.063 -4.096,11.404 -9.961,12.989 -1.148,0.305 -2.314,0.458 -3.479,0.458 z m -0.001,-20.907 c -0.646,0 -1.294,0.086 -1.928,0.257 -3.26,0.871 -5.534,3.827 -5.534,7.191 0,0.648 0.086,1.299 0.256,1.935 0.874,3.252 3.837,5.524 7.207,5.524 0.646,0 1.294,-0.085 1.927,-0.253 3.241,-0.876 5.513,-3.835 5.513,-7.193 0,-0.646 -0.086,-1.296 -0.256,-1.929 -0.872,-3.258 -3.826,-5.532 -7.185,-5.532 z"
               style="fill:#6fc3df;fill-opacity:1" />
          </g>
          <g
             id="g225">
            <path
               id="path223"
               d="m 470.262,204.285 c -8.448,0 -15.877,-5.707 -18.065,-13.877 -0.428,-1.591 -0.646,-3.229 -0.646,-4.864 0,-8.447 5.707,-15.874 13.879,-18.061 1.587,-0.425 3.219,-0.64 4.85,-0.64 8.455,0 15.888,5.706 18.075,13.875 0.426,1.589 0.641,3.221 0.641,4.852 0,8.454 -5.71,15.885 -13.886,18.073 -1.587,0.426 -3.218,0.642 -4.848,0.642 z m 0.017,-31.442 c -1.107,0 -2.217,0.147 -3.299,0.436 -5.552,1.486 -9.43,6.529 -9.43,12.265 0,1.109 0.148,2.222 0.44,3.309 1.487,5.555 6.533,9.432 12.271,9.432 1.105,0 2.215,-0.147 3.295,-0.437 5.558,-1.487 9.438,-6.536 9.438,-12.278 0,-1.107 -0.146,-2.218 -0.437,-3.301 -1.485,-5.549 -6.534,-9.426 -12.278,-9.426 z"
               style="fill:#df740c;fill-opacity:1" />
          </g>
          <g
             id="g229">
            <path
               id="path227"
               d="m 185.885,260.154 c -5.992,0 -11.258,-4.048 -12.806,-9.844 -0.303,-1.126 -0.457,-2.288 -0.457,-3.45 0,-5.991 4.042,-11.262 9.83,-12.818 1.128,-0.301 2.284,-0.454 3.439,-0.454 5.999,0 11.276,4.049 12.834,9.846 0.301,1.13 0.453,2.285 0.453,3.438 0,5.996 -4.049,11.269 -9.847,12.825 -1.127,0.304 -2.287,0.457 -3.446,0.457 z m 0.006,-20.565 c -0.633,0 -1.268,0.084 -1.886,0.249 -3.167,0.852 -5.383,3.74 -5.383,7.022 0,0.636 0.085,1.274 0.252,1.897 0.849,3.179 3.731,5.396 7.01,5.396 0.634,0 1.27,-0.084 1.89,-0.251 3.182,-0.854 5.403,-3.744 5.403,-7.03 0,-0.632 -0.084,-1.268 -0.249,-1.888 -0.852,-3.173 -3.747,-5.395 -7.037,-5.395 z"
               style="fill:#df740c;fill-opacity:1" />
          </g>
          <g
             id="g233">
            <path
               id="path231"
               d="m 324.271,261.299 c -5.991,0 -11.265,-4.049 -12.823,-9.846 -0.304,-1.13 -0.457,-2.29 -0.457,-3.447 0,-5.995 4.05,-11.262 9.848,-12.807 1.125,-0.302 2.286,-0.456 3.446,-0.456 5.986,0 11.254,4.046 12.81,9.84 0.303,1.126 0.457,2.287 0.457,3.448 0,5.99 -4.048,11.258 -9.843,12.813 -1.129,0.302 -2.285,0.455 -3.438,0.455 z m 0.014,-20.555 c -0.635,0 -1.273,0.085 -1.896,0.252 -3.18,0.848 -5.397,3.729 -5.397,7.01 0,0.632 0.085,1.268 0.252,1.891 0.855,3.18 3.745,5.402 7.028,5.402 0.63,0 1.265,-0.084 1.886,-0.25 3.175,-0.852 5.395,-3.737 5.395,-7.017 0,-0.635 -0.085,-1.271 -0.251,-1.89 -0.856,-3.179 -3.739,-5.398 -7.017,-5.398 z"
               style="fill:#ffe64d;fill-opacity:1" />
          </g>
          <g
             id="g237">
            <path
               id="path235"
               d="m 312.765,197.049 c -5.991,0 -11.265,-4.045 -12.825,-9.836 -0.302,-1.131 -0.454,-2.287 -0.454,-3.441 0,-6.006 4.051,-11.279 9.852,-12.824 1.125,-0.302 2.287,-0.456 3.448,-0.456 5.991,0 11.255,4.048 12.801,9.845 0.303,1.128 0.456,2.288 0.456,3.445 0,5.985 -4.042,11.254 -9.829,12.812 -1.131,0.302 -2.29,0.455 -3.449,0.455 z m 0.02,-20.558 c -0.636,0 -1.274,0.085 -1.897,0.252 -3.184,0.848 -5.402,3.737 -5.402,7.028 0,0.633 0.084,1.268 0.249,1.887 0.854,3.171 3.746,5.391 7.03,5.391 0.635,0 1.271,-0.084 1.892,-0.251 3.17,-0.854 5.386,-3.739 5.386,-7.017 0,-0.633 -0.085,-1.271 -0.252,-1.896 -0.849,-3.177 -3.728,-5.394 -7.006,-5.394 z"
               style="fill:#6fc3df;fill-opacity:1" />
          </g>
        </g>
      </g>
    </g>
  </g>
  <script
     type="text/javascript"
     id="mesh_polyfill">
!function(){const t=&quot;http://www.w3.org/2000/svg&quot;,e=&quot;http://www.w3.org/1999/xlink&quot;,s=&quot;http://www.w3.org/1999/xhtml&quot;,r=2;if(document.createElementNS(t,&quot;meshgradient&quot;).x)return;const n=(t,e,s,r)=&gt;{let n=new x(.5*(e.x+s.x),.5*(e.y+s.y)),o=new x(.5*(t.x+e.x),.5*(t.y+e.y)),i=new x(.5*(s.x+r.x),.5*(s.y+r.y)),a=new x(.5*(n.x+o.x),.5*(n.y+o.y)),h=new x(.5*(n.x+i.x),.5*(n.y+i.y)),l=new x(.5*(a.x+h.x),.5*(a.y+h.y));return[[t,o,a,l],[l,h,i,r]]},o=t=&gt;{let e=t[0].distSquared(t[1]),s=t[2].distSquared(t[3]),r=.25*t[0].distSquared(t[2]),n=.25*t[1].distSquared(t[3]),o=e&gt;s?e:s,i=r&gt;n?r:n;return 18*(o&gt;i?o:i)},i=(t,e)=&gt;Math.sqrt(t.distSquared(e)),a=(t,e)=&gt;t.scale(2/3).add(e.scale(1/3)),h=t=&gt;{let e,s,r,n,o,i,a,h=new g;return t.match(/(\w+\(\s*[^)]+\))+/g).forEach(t=&gt;{let l=t.match(/[\w.-]+/g),d=l.shift();switch(d){case&quot;translate&quot;:2===l.length?e=new g(1,0,0,1,l[0],l[1]):(console.error(&quot;mesh.js: translate does not have 2 arguments!&quot;),e=new g(1,0,0,1,0,0)),h=h.append(e);break;case&quot;scale&quot;:1===l.length?s=new g(l[0],0,0,l[0],0,0):2===l.length?s=new g(l[0],0,0,l[1],0,0):(console.error(&quot;mesh.js: scale does not have 1 or 2 arguments!&quot;),s=new g(1,0,0,1,0,0)),h=h.append(s);break;case&quot;rotate&quot;:if(3===l.length&amp;&amp;(e=new g(1,0,0,1,l[1],l[2]),h=h.append(e)),l[0]){r=l[0]*Math.PI/180;let t=Math.cos(r),e=Math.sin(r);Math.abs(t)&lt;1e-16&amp;&amp;(t=0),Math.abs(e)&lt;1e-16&amp;&amp;(e=0),a=new g(t,e,-e,t,0,0),h=h.append(a)}else console.error(&quot;math.js: No argument to rotate transform!&quot;);3===l.length&amp;&amp;(e=new g(1,0,0,1,-l[1],-l[2]),h=h.append(e));break;case&quot;skewX&quot;:l[0]?(r=l[0]*Math.PI/180,n=Math.tan(r),o=new g(1,0,n,1,0,0),h=h.append(o)):console.error(&quot;math.js: No argument to skewX transform!&quot;);break;case&quot;skewY&quot;:l[0]?(r=l[0]*Math.PI/180,n=Math.tan(r),i=new g(1,n,0,1,0,0),h=h.append(i)):console.error(&quot;math.js: No argument to skewY transform!&quot;);break;case&quot;matrix&quot;:6===l.length?h=h.append(new g(...l)):console.error(&quot;math.js: Incorrect number of arguments for matrix!&quot;);break;default:console.error(&quot;mesh.js: Unhandled transform type: &quot;+d)}}),h},l=t=&gt;{let e=[],s=t.split(/[ ,]+/);for(let t=0,r=s.length-1;t&lt;r;t+=2)e.push(new x(parseFloat(s[t]),parseFloat(s[t+1])));return e},d=(t,e)=&gt;{for(let s in e)t.setAttribute(s,e[s])},c=(t,e,s,r,n)=&gt;{let o,i,a=[0,0,0,0];for(let h=0;h&lt;3;++h)e[h]&lt;t[h]&amp;&amp;e[h]&lt;s[h]||t[h]&lt;e[h]&amp;&amp;s[h]&lt;e[h]?a[h]=0:(a[h]=.5*((e[h]-t[h])/r+(s[h]-e[h])/n),o=Math.abs(3*(e[h]-t[h])/r),i=Math.abs(3*(s[h]-e[h])/n),a[h]&gt;o?a[h]=o:a[h]&gt;i&amp;&amp;(a[h]=i));return a},u=[[1,0,0,0,0,0,0,0,0,0,0,0,0,0,0,0],[0,0,0,0,1,0,0,0,0,0,0,0,0,0,0,0],[-3,3,0,0,-2,-1,0,0,0,0,0,0,0,0,0,0],[2,-2,0,0,1,1,0,0,0,0,0,0,0,0,0,0],[0,0,0,0,0,0,0,0,1,0,0,0,0,0,0,0],[0,0,0,0,0,0,0,0,0,0,0,0,1,0,0,0],[0,0,0,0,0,0,0,0,-3,3,0,0,-2,-1,0,0],[0,0,0,0,0,0,0,0,2,-2,0,0,1,1,0,0],[-3,0,3,0,0,0,0,0,-2,0,-1,0,0,0,0,0],[0,0,0,0,-3,0,3,0,0,0,0,0,-2,0,-1,0],[9,-9,-9,9,6,3,-6,-3,6,-6,3,-3,4,2,2,1],[-6,6,6,-6,-3,-3,3,3,-4,4,-2,2,-2,-2,-1,-1],[2,0,-2,0,0,0,0,0,1,0,1,0,0,0,0,0],[0,0,0,0,2,0,-2,0,0,0,0,0,1,0,1,0],[-6,6,6,-6,-4,-2,4,2,-3,3,-3,3,-2,-1,-2,-1],[4,-4,-4,4,2,2,-2,-2,2,-2,2,-2,1,1,1,1]],f=t=&gt;{let e=[];for(let s=0;s&lt;16;++s){e[s]=0;for(let r=0;r&lt;16;++r)e[s]+=u[s][r]*t[r]}return e},p=(t,e,s)=&gt;{const r=e*e,n=s*s,o=e*e*e,i=s*s*s;return t[0]+t[1]*e+t[2]*r+t[3]*o+t[4]*s+t[5]*s*e+t[6]*s*r+t[7]*s*o+t[8]*n+t[9]*n*e+t[10]*n*r+t[11]*n*o+t[12]*i+t[13]*i*e+t[14]*i*r+t[15]*i*o},y=t=&gt;{let e=[],s=[],r=[];for(let s=0;s&lt;4;++s)e[s]=[],e[s][0]=n(t[0][s],t[1][s],t[2][s],t[3][s]),e[s][1]=[],e[s][1].push(...n(...e[s][0][0])),e[s][1].push(...n(...e[s][0][1])),e[s][2]=[],e[s][2].push(...n(...e[s][1][0])),e[s][2].push(...n(...e[s][1][1])),e[s][2].push(...n(...e[s][1][2])),e[s][2].push(...n(...e[s][1][3]));for(let t=0;t&lt;8;++t){s[t]=[];for(let r=0;r&lt;4;++r)s[t][r]=[],s[t][r][0]=n(e[0][2][t][r],e[1][2][t][r],e[2][2][t][r],e[3][2][t][r]),s[t][r][1]=[],s[t][r][1].push(...n(...s[t][r][0][0])),s[t][r][1].push(...n(...s[t][r][0][1])),s[t][r][2]=[],s[t][r][2].push(...n(...s[t][r][1][0])),s[t][r][2].push(...n(...s[t][r][1][1])),s[t][r][2].push(...n(...s[t][r][1][2])),s[t][r][2].push(...n(...s[t][r][1][3]))}for(let t=0;t&lt;8;++t){r[t]=[];for(let e=0;e&lt;8;++e)r[t][e]=[],r[t][e][0]=s[t][0][2][e],r[t][e][1]=s[t][1][2][e],r[t][e][2]=s[t][2][2][e],r[t][e][3]=s[t][3][2][e]}return r};class x{constructor(t,e){this.x=t||0,this.y=e||0}toString(){return`(x=${this.x}, y=${this.y})`}clone(){return new x(this.x,this.y)}add(t){return new x(this.x+t.x,this.y+t.y)}scale(t){return void 0===t.x?new x(this.x*t,this.y*t):new x(this.x*t.x,this.y*t.y)}distSquared(t){let e=this.x-t.x,s=this.y-t.y;return e*e+s*s}transform(t){let e=this.x*t.a+this.y*t.c+t.e,s=this.x*t.b+this.y*t.d+t.f;return new x(e,s)}}class g{constructor(t,e,s,r,n,o){void 0===t?(this.a=1,this.b=0,this.c=0,this.d=1,this.e=0,this.f=0):(this.a=t,this.b=e,this.c=s,this.d=r,this.e=n,this.f=o)}toString(){return`affine: ${this.a} ${this.c} ${this.e} \n       ${this.b} ${this.d} ${this.f}`}append(t){t instanceof g||console.error(&quot;mesh.js: argument to Affine.append is not affine!&quot;);let e=this.a*t.a+this.c*t.b,s=this.b*t.a+this.d*t.b,r=this.a*t.c+this.c*t.d,n=this.b*t.c+this.d*t.d,o=this.a*t.e+this.c*t.f+this.e,i=this.b*t.e+this.d*t.f+this.f;return new g(e,s,r,n,o,i)}}class w{constructor(t,e){this.nodes=t,this.colors=e}paintCurve(t,e){if(o(this.nodes)&gt;r){const s=n(...this.nodes);let r=[[],[]],o=[[],[]];for(let t=0;t&lt;4;++t)r[0][t]=this.colors[0][t],r[1][t]=(this.colors[0][t]+this.colors[1][t])/2,o[0][t]=r[1][t],o[1][t]=this.colors[1][t];let i=new w(s[0],r),a=new w(s[1],o);i.paintCurve(t,e),a.paintCurve(t,e)}else{let s=Math.round(this.nodes[0].x);if(s&gt;=0&amp;&amp;s&lt;e){let r=4*(~~this.nodes[0].y*e+s);t[r]=Math.round(this.colors[0][0]),t[r+1]=Math.round(this.colors[0][1]),t[r+2]=Math.round(this.colors[0][2]),t[r+3]=Math.round(this.colors[0][3])}}}}class m{constructor(t,e){this.nodes=t,this.colors=e}split(){let t=[[],[],[],[]],e=[[],[],[],[]],s=[[[],[]],[[],[]]],r=[[[],[]],[[],[]]];for(let s=0;s&lt;4;++s){const r=n(this.nodes[0][s],this.nodes[1][s],this.nodes[2][s],this.nodes[3][s]);t[0][s]=r[0][0],t[1][s]=r[0][1],t[2][s]=r[0][2],t[3][s]=r[0][3],e[0][s]=r[1][0],e[1][s]=r[1][1],e[2][s]=r[1][2],e[3][s]=r[1][3]}for(let t=0;t&lt;4;++t)s[0][0][t]=this.colors[0][0][t],s[0][1][t]=this.colors[0][1][t],s[1][0][t]=(this.colors[0][0][t]+this.colors[1][0][t])/2,s[1][1][t]=(this.colors[0][1][t]+this.colors[1][1][t])/2,r[0][0][t]=s[1][0][t],r[0][1][t]=s[1][1][t],r[1][0][t]=this.colors[1][0][t],r[1][1][t]=this.colors[1][1][t];return[new m(t,s),new m(e,r)]}paint(t,e){let s,n=!1;for(let t=0;t&lt;4;++t)if((s=o([this.nodes[0][t],this.nodes[1][t],this.nodes[2][t],this.nodes[3][t]]))&gt;r){n=!0;break}if(n){let s=this.split();s[0].paint(t,e),s[1].paint(t,e)}else{new w([...this.nodes[0]],[...this.colors[0]]).paintCurve(t,e)}}}class b{constructor(t){this.readMesh(t),this.type=t.getAttribute(&quot;type&quot;)||&quot;bilinear&quot;}readMesh(t){let e=[[]],s=[[]],r=Number(t.getAttribute(&quot;x&quot;)),n=Number(t.getAttribute(&quot;y&quot;));e[0][0]=new x(r,n);let o=t.children;for(let t=0,r=o.length;t&lt;r;++t){e[3*t+1]=[],e[3*t+2]=[],e[3*t+3]=[],s[t+1]=[];let r=o[t].children;for(let n=0,o=r.length;n&lt;o;++n){let o=r[n].children;for(let r=0,i=o.length;r&lt;i;++r){let i=r;0!==t&amp;&amp;++i;let h,d=o[r].getAttribute(&quot;path&quot;),c=&quot;l&quot;;null!=d&amp;&amp;(c=(h=d.match(/\s*([lLcC])\s*(.*)/))[1]);let u=l(h[2]);switch(c){case&quot;l&quot;:0===i?(e[3*t][3*n+3]=u[0].add(e[3*t][3*n]),e[3*t][3*n+1]=a(e[3*t][3*n],e[3*t][3*n+3]),e[3*t][3*n+2]=a(e[3*t][3*n+3],e[3*t][3*n])):1===i?(e[3*t+3][3*n+3]=u[0].add(e[3*t][3*n+3]),e[3*t+1][3*n+3]=a(e[3*t][3*n+3],e[3*t+3][3*n+3]),e[3*t+2][3*n+3]=a(e[3*t+3][3*n+3],e[3*t][3*n+3])):2===i?(0===n&amp;&amp;(e[3*t+3][3*n+0]=u[0].add(e[3*t+3][3*n+3])),e[3*t+3][3*n+1]=a(e[3*t+3][3*n],e[3*t+3][3*n+3]),e[3*t+3][3*n+2]=a(e[3*t+3][3*n+3],e[3*t+3][3*n])):(e[3*t+1][3*n]=a(e[3*t][3*n],e[3*t+3][3*n]),e[3*t+2][3*n]=a(e[3*t+3][3*n],e[3*t][3*n]));break;case&quot;L&quot;:0===i?(e[3*t][3*n+3]=u[0],e[3*t][3*n+1]=a(e[3*t][3*n],e[3*t][3*n+3]),e[3*t][3*n+2]=a(e[3*t][3*n+3],e[3*t][3*n])):1===i?(e[3*t+3][3*n+3]=u[0],e[3*t+1][3*n+3]=a(e[3*t][3*n+3],e[3*t+3][3*n+3]),e[3*t+2][3*n+3]=a(e[3*t+3][3*n+3],e[3*t][3*n+3])):2===i?(0===n&amp;&amp;(e[3*t+3][3*n+0]=u[0]),e[3*t+3][3*n+1]=a(e[3*t+3][3*n],e[3*t+3][3*n+3]),e[3*t+3][3*n+2]=a(e[3*t+3][3*n+3],e[3*t+3][3*n])):(e[3*t+1][3*n]=a(e[3*t][3*n],e[3*t+3][3*n]),e[3*t+2][3*n]=a(e[3*t+3][3*n],e[3*t][3*n]));break;case&quot;c&quot;:0===i?(e[3*t][3*n+1]=u[0].add(e[3*t][3*n]),e[3*t][3*n+2]=u[1].add(e[3*t][3*n]),e[3*t][3*n+3]=u[2].add(e[3*t][3*n])):1===i?(e[3*t+1][3*n+3]=u[0].add(e[3*t][3*n+3]),e[3*t+2][3*n+3]=u[1].add(e[3*t][3*n+3]),e[3*t+3][3*n+3]=u[2].add(e[3*t][3*n+3])):2===i?(e[3*t+3][3*n+2]=u[0].add(e[3*t+3][3*n+3]),e[3*t+3][3*n+1]=u[1].add(e[3*t+3][3*n+3]),0===n&amp;&amp;(e[3*t+3][3*n+0]=u[2].add(e[3*t+3][3*n+3]))):(e[3*t+2][3*n]=u[0].add(e[3*t+3][3*n]),e[3*t+1][3*n]=u[1].add(e[3*t+3][3*n]));break;case&quot;C&quot;:0===i?(e[3*t][3*n+1]=u[0],e[3*t][3*n+2]=u[1],e[3*t][3*n+3]=u[2]):1===i?(e[3*t+1][3*n+3]=u[0],e[3*t+2][3*n+3]=u[1],e[3*t+3][3*n+3]=u[2]):2===i?(e[3*t+3][3*n+2]=u[0],e[3*t+3][3*n+1]=u[1],0===n&amp;&amp;(e[3*t+3][3*n+0]=u[2])):(e[3*t+2][3*n]=u[0],e[3*t+1][3*n]=u[1]);break;default:console.error(&quot;mesh.js: &quot;+c+&quot; invalid path type.&quot;)}if(0===t&amp;&amp;0===n||r&gt;0){let e=window.getComputedStyle(o[r]).stopColor.match(/^rgb\s*\(\s*(\d+)\s*,\s*(\d+)\s*,\s*(\d+)\s*\)$/i),a=window.getComputedStyle(o[r]).stopOpacity,h=255;a&amp;&amp;(h=Math.floor(255*a)),e&amp;&amp;(0===i?(s[t][n]=[],s[t][n][0]=Math.floor(e[1]),s[t][n][1]=Math.floor(e[2]),s[t][n][2]=Math.floor(e[3]),s[t][n][3]=h):1===i?(s[t][n+1]=[],s[t][n+1][0]=Math.floor(e[1]),s[t][n+1][1]=Math.floor(e[2]),s[t][n+1][2]=Math.floor(e[3]),s[t][n+1][3]=h):2===i?(s[t+1][n+1]=[],s[t+1][n+1][0]=Math.floor(e[1]),s[t+1][n+1][1]=Math.floor(e[2]),s[t+1][n+1][2]=Math.floor(e[3]),s[t+1][n+1][3]=h):3===i&amp;&amp;(s[t+1][n]=[],s[t+1][n][0]=Math.floor(e[1]),s[t+1][n][1]=Math.floor(e[2]),s[t+1][n][2]=Math.floor(e[3]),s[t+1][n][3]=h))}}e[3*t+1][3*n+1]=new x,e[3*t+1][3*n+2]=new x,e[3*t+2][3*n+1]=new x,e[3*t+2][3*n+2]=new x,e[3*t+1][3*n+1].x=(-4*e[3*t][3*n].x+6*(e[3*t][3*n+1].x+e[3*t+1][3*n].x)+-2*(e[3*t][3*n+3].x+e[3*t+3][3*n].x)+3*(e[3*t+3][3*n+1].x+e[3*t+1][3*n+3].x)+-1*e[3*t+3][3*n+3].x)/9,e[3*t+1][3*n+2].x=(-4*e[3*t][3*n+3].x+6*(e[3*t][3*n+2].x+e[3*t+1][3*n+3].x)+-2*(e[3*t][3*n].x+e[3*t+3][3*n+3].x)+3*(e[3*t+3][3*n+2].x+e[3*t+1][3*n].x)+-1*e[3*t+3][3*n].x)/9,e[3*t+2][3*n+1].x=(-4*e[3*t+3][3*n].x+6*(e[3*t+3][3*n+1].x+e[3*t+2][3*n].x)+-2*(e[3*t+3][3*n+3].x+e[3*t][3*n].x)+3*(e[3*t][3*n+1].x+e[3*t+2][3*n+3].x)+-1*e[3*t][3*n+3].x)/9,e[3*t+2][3*n+2].x=(-4*e[3*t+3][3*n+3].x+6*(e[3*t+3][3*n+2].x+e[3*t+2][3*n+3].x)+-2*(e[3*t+3][3*n].x+e[3*t][3*n+3].x)+3*(e[3*t][3*n+2].x+e[3*t+2][3*n].x)+-1*e[3*t][3*n].x)/9,e[3*t+1][3*n+1].y=(-4*e[3*t][3*n].y+6*(e[3*t][3*n+1].y+e[3*t+1][3*n].y)+-2*(e[3*t][3*n+3].y+e[3*t+3][3*n].y)+3*(e[3*t+3][3*n+1].y+e[3*t+1][3*n+3].y)+-1*e[3*t+3][3*n+3].y)/9,e[3*t+1][3*n+2].y=(-4*e[3*t][3*n+3].y+6*(e[3*t][3*n+2].y+e[3*t+1][3*n+3].y)+-2*(e[3*t][3*n].y+e[3*t+3][3*n+3].y)+3*(e[3*t+3][3*n+2].y+e[3*t+1][3*n].y)+-1*e[3*t+3][3*n].y)/9,e[3*t+2][3*n+1].y=(-4*e[3*t+3][3*n].y+6*(e[3*t+3][3*n+1].y+e[3*t+2][3*n].y)+-2*(e[3*t+3][3*n+3].y+e[3*t][3*n].y)+3*(e[3*t][3*n+1].y+e[3*t+2][3*n+3].y)+-1*e[3*t][3*n+3].y)/9,e[3*t+2][3*n+2].y=(-4*e[3*t+3][3*n+3].y+6*(e[3*t+3][3*n+2].y+e[3*t+2][3*n+3].y)+-2*(e[3*t+3][3*n].y+e[3*t][3*n+3].y)+3*(e[3*t][3*n+2].y+e[3*t+2][3*n].y)+-1*e[3*t][3*n].y)/9}}this.nodes=e,this.colors=s}paintMesh(t,e){let s=(this.nodes.length-1)/3,r=(this.nodes[0].length-1)/3;if(&quot;bilinear&quot;===this.type||s&lt;2||r&lt;2){let n;for(let o=0;o&lt;s;++o)for(let s=0;s&lt;r;++s){let r=[];for(let t=3*o,e=3*o+4;t&lt;e;++t)r.push(this.nodes[t].slice(3*s,3*s+4));let i=[];i.push(this.colors[o].slice(s,s+2)),i.push(this.colors[o+1].slice(s,s+2)),(n=new m(r,i)).paint(t,e)}}else{let n,o,a,h,l,d,u;const x=s,g=r;s++,r++;let w=new Array(s);for(let t=0;t&lt;s;++t){w[t]=new Array(r);for(let e=0;e&lt;r;++e)w[t][e]=[],w[t][e][0]=this.nodes[3*t][3*e],w[t][e][1]=this.colors[t][e]}for(let t=0;t&lt;s;++t)for(let e=0;e&lt;r;++e)0!==t&amp;&amp;t!==x&amp;&amp;(n=i(w[t-1][e][0],w[t][e][0]),o=i(w[t+1][e][0],w[t][e][0]),w[t][e][2]=c(w[t-1][e][1],w[t][e][1],w[t+1][e][1],n,o)),0!==e&amp;&amp;e!==g&amp;&amp;(n=i(w[t][e-1][0],w[t][e][0]),o=i(w[t][e+1][0],w[t][e][0]),w[t][e][3]=c(w[t][e-1][1],w[t][e][1],w[t][e+1][1],n,o));for(let t=0;t&lt;r;++t){w[0][t][2]=[],w[x][t][2]=[];for(let e=0;e&lt;4;++e)n=i(w[1][t][0],w[0][t][0]),o=i(w[x][t][0],w[x-1][t][0]),w[0][t][2][e]=n&gt;0?2*(w[1][t][1][e]-w[0][t][1][e])/n-w[1][t][2][e]:0,w[x][t][2][e]=o&gt;0?2*(w[x][t][1][e]-w[x-1][t][1][e])/o-w[x-1][t][2][e]:0}for(let t=0;t&lt;s;++t){w[t][0][3]=[],w[t][g][3]=[];for(let e=0;e&lt;4;++e)n=i(w[t][1][0],w[t][0][0]),o=i(w[t][g][0],w[t][g-1][0]),w[t][0][3][e]=n&gt;0?2*(w[t][1][1][e]-w[t][0][1][e])/n-w[t][1][3][e]:0,w[t][g][3][e]=o&gt;0?2*(w[t][g][1][e]-w[t][g-1][1][e])/o-w[t][g-1][3][e]:0}for(let s=0;s&lt;x;++s)for(let r=0;r&lt;g;++r){let n=i(w[s][r][0],w[s+1][r][0]),o=i(w[s][r+1][0],w[s+1][r+1][0]),c=i(w[s][r][0],w[s][r+1][0]),x=i(w[s+1][r][0],w[s+1][r+1][0]),g=[[],[],[],[]];for(let t=0;t&lt;4;++t){(d=[])[0]=w[s][r][1][t],d[1]=w[s+1][r][1][t],d[2]=w[s][r+1][1][t],d[3]=w[s+1][r+1][1][t],d[4]=w[s][r][2][t]*n,d[5]=w[s+1][r][2][t]*n,d[6]=w[s][r+1][2][t]*o,d[7]=w[s+1][r+1][2][t]*o,d[8]=w[s][r][3][t]*c,d[9]=w[s+1][r][3][t]*x,d[10]=w[s][r+1][3][t]*c,d[11]=w[s+1][r+1][3][t]*x,d[12]=0,d[13]=0,d[14]=0,d[15]=0,u=f(d);for(let e=0;e&lt;9;++e){g[t][e]=[];for(let s=0;s&lt;9;++s)g[t][e][s]=p(u,e/8,s/8),g[t][e][s]&gt;255?g[t][e][s]=255:g[t][e][s]&lt;0&amp;&amp;(g[t][e][s]=0)}}h=[];for(let t=3*s,e=3*s+4;t&lt;e;++t)h.push(this.nodes[t].slice(3*r,3*r+4));l=y(h);for(let s=0;s&lt;8;++s)for(let r=0;r&lt;8;++r)(a=new m(l[s][r],[[[g[0][s][r],g[1][s][r],g[2][s][r],g[3][s][r]],[g[0][s][r+1],g[1][s][r+1],g[2][s][r+1],g[3][s][r+1]]],[[g[0][s+1][r],g[1][s+1][r],g[2][s+1][r],g[3][s+1][r]],[g[0][s+1][r+1],g[1][s+1][r+1],g[2][s+1][r+1],g[3][s+1][r+1]]]])).paint(t,e)}}}transform(t){if(t instanceof x)for(let e=0,s=this.nodes.length;e&lt;s;++e)for(let s=0,r=this.nodes[0].length;s&lt;r;++s)this.nodes[e][s]=this.nodes[e][s].add(t);else if(t instanceof g)for(let e=0,s=this.nodes.length;e&lt;s;++e)for(let s=0,r=this.nodes[0].length;s&lt;r;++s)this.nodes[e][s]=this.nodes[e][s].transform(t)}scale(t){for(let e=0,s=this.nodes.length;e&lt;s;++e)for(let s=0,r=this.nodes[0].length;s&lt;r;++s)this.nodes[e][s]=this.nodes[e][s].scale(t)}}document.querySelectorAll(&quot;rect,circle,ellipse,path,text&quot;).forEach((r,n)=&gt;{let o=r.getAttribute(&quot;id&quot;);o||(o=&quot;patchjs_shape&quot;+n,r.setAttribute(&quot;id&quot;,o));const i=r.style.fill.match(/^url\(\s*&quot;?\s*#([^\s&quot;]+)&quot;?\s*\)/),a=r.style.stroke.match(/^url\(\s*&quot;?\s*#([^\s&quot;]+)&quot;?\s*\)/);if(i&amp;&amp;i[1]){const a=document.getElementById(i[1]);if(a&amp;&amp;&quot;meshgradient&quot;===a.nodeName){const i=r.getBBox();let l=document.createElementNS(s,&quot;canvas&quot;);d(l,{width:i.width,height:i.height});const c=l.getContext(&quot;2d&quot;);let u=c.createImageData(i.width,i.height);const f=new b(a);&quot;objectBoundingBox&quot;===a.getAttribute(&quot;gradientUnits&quot;)&amp;&amp;f.scale(new x(i.width,i.height));const p=a.getAttribute(&quot;gradientTransform&quot;);null!=p&amp;&amp;f.transform(h(p)),&quot;userSpaceOnUse&quot;===a.getAttribute(&quot;gradientUnits&quot;)&amp;&amp;f.transform(new x(-i.x,-i.y)),f.paintMesh(u.data,l.width),c.putImageData(u,0,0);const y=document.createElementNS(t,&quot;image&quot;);d(y,{width:i.width,height:i.height,x:i.x,y:i.y});let g=l.toDataURL();y.setAttributeNS(e,&quot;xlink:href&quot;,g),r.parentNode.insertBefore(y,r),r.style.fill=&quot;none&quot;;const w=document.createElementNS(t,&quot;use&quot;);w.setAttributeNS(e,&quot;xlink:href&quot;,&quot;#&quot;+o);const m=&quot;patchjs_clip&quot;+n,M=document.createElementNS(t,&quot;clipPath&quot;);M.setAttribute(&quot;id&quot;,m),M.appendChild(w),r.parentElement.insertBefore(M,r),y.setAttribute(&quot;clip-path&quot;,&quot;url(#&quot;+m+&quot;)&quot;),u=null,l=null,g=null}}if(a&amp;&amp;a[1]){const o=document.getElementById(a[1]);if(o&amp;&amp;&quot;meshgradient&quot;===o.nodeName){const i=parseFloat(r.style.strokeWidth.slice(0,-2))*(parseFloat(r.style.strokeMiterlimit)||parseFloat(r.getAttribute(&quot;stroke-miterlimit&quot;))||1),a=r.getBBox(),l=Math.trunc(a.width+i),c=Math.trunc(a.height+i),u=Math.trunc(a.x-i/2),f=Math.trunc(a.y-i/2);let p=document.createElementNS(s,&quot;canvas&quot;);d(p,{width:l,height:c});const y=p.getContext(&quot;2d&quot;);let g=y.createImageData(l,c);const w=new b(o);&quot;objectBoundingBox&quot;===o.getAttribute(&quot;gradientUnits&quot;)&amp;&amp;w.scale(new x(l,c));const m=o.getAttribute(&quot;gradientTransform&quot;);null!=m&amp;&amp;w.transform(h(m)),&quot;userSpaceOnUse&quot;===o.getAttribute(&quot;gradientUnits&quot;)&amp;&amp;w.transform(new x(-u,-f)),w.paintMesh(g.data,p.width),y.putImageData(g,0,0);const M=document.createElementNS(t,&quot;image&quot;);d(M,{width:l,height:c,x:0,y:0});let S=p.toDataURL();M.setAttributeNS(e,&quot;xlink:href&quot;,S);const k=&quot;pattern_clip&quot;+n,A=document.createElementNS(t,&quot;pattern&quot;);d(A,{id:k,patternUnits:&quot;userSpaceOnUse&quot;,width:l,height:c,x:u,y:f}),A.appendChild(M),o.parentNode.appendChild(A),r.style.stroke=&quot;url(#&quot;+k+&quot;)&quot;,g=null,p=null,S=null}}})}();
</script>
</svg>
